<?xml version="1.0" encoding="UTF-8"?>
<!DOCTYPE svg PUBLIC "-//W3C//DTD SVG 1.1//EN" "http://www.w3.org/Graphics/SVG/1.1/DTD/svg11.dtd">
<!-- Creator: CorelDRAW X7 -->
<svg xmlns="http://www.w3.org/2000/svg" xml:space="preserve" width="96.5201mm" height="96.5201mm" version="1.1" style="shape-rendering:geometricPrecision; text-rendering:geometricPrecision; image-rendering:optimizeQuality; fill-rule:evenodd; clip-rule:evenodd"
viewBox="0 0 9678 9678"
 xmlns:xlink="http://www.w3.org/1999/xlink">
 <defs>
  <style type="text/css">
   <![CDATA[
    .fil0 {fill:#333333}
   ]]>
  </style>
 </defs>
 <g id="Layer_x0020_1">
  <metadata id="CorelCorpID_0Corel-Layer"/>
  <path class="fil0" d="M1825 0l6028 0c1004,0 1825,821 1825,1825l0 6028c0,1004 -821,1825 -1825,1825l-6028 0c-1004,0 -1825,-821 -1825,-1825l0 -6028c0,-1004 821,-1825 1825,-1825zm1234 1384l-1909 5591 2112 1319 2439 -1106 2436 -1114 392 -2460 -5470 -2230zm2396 5263l-2 6 -1461 -530 2028 -923 -559 1449 -6 -2zm550 -2057l-1231 560 -1232 562 -9 -3285 2472 2163zm-2986 1353l-1180 540 1149 -3439 31 2899zm13 1649l-981 -609 966 -450 15 1059zm555 116l-22 -1215 1385 583 -1363 632zm2937 -3361l-2167 -1927 3348 1391 -1181 536zm1235 1093l-789 -707 973 -433 -184 1140zm-277 494l-1371 614 469 -1428 902 814z"/>
 </g>
</svg>
